<svg width="165" height="50" viewBox="0 0 165 50" fill="none" xmlns="http://www.w3.org/2000/svg">
<g clip-path="url(#clip0_1089_99)">
<path d="M50.791 40.6976L32.6723 9.30176L22.966 14.8997L37.8514 40.6976H50.791ZM33.5264 40.6976L21.5598 19.9788L11.8535 25.5768L20.5868 40.6976H33.5264ZM10.4952 30.6726L16.2785 40.6976H3.33893L0.791016 36.2705L10.4952 30.6726Z" fill="white" fill-opacity="0.8"/>
</g>
<path d="M77.611 15H81.826L89.461 36H85.576L84.226 32.28H75.226L73.876 36H69.991L77.611 15ZM76.561 28.62H82.876L79.711 19.965L76.561 28.62ZM102.292 13.5H105.952V36H102.292V34.125C101.812 34.795 101.207 35.34 100.477 35.76C99.7473 36.18 98.9023 36.39 97.9423 36.39C96.8523 36.39 95.8323 36.185 94.8823 35.775C93.9323 35.365 93.0923 34.8 92.3623 34.08C91.6423 33.35 91.0773 32.51 90.6673 31.56C90.2573 30.61 90.0523 29.59 90.0523 28.5C90.0523 27.41 90.2573 26.39 90.6673 25.44C91.0773 24.49 91.6423 23.655 92.3623 22.935C93.0923 22.205 93.9323 21.635 94.8823 21.225C95.8323 20.815 96.8523 20.61 97.9423 20.61C98.9023 20.61 99.7473 20.82 100.477 21.24C101.207 21.65 101.812 22.195 102.292 22.875V13.5ZM97.9873 32.865C98.7673 32.865 99.4573 32.67 100.057 32.28C100.657 31.89 101.127 31.365 101.467 30.705C101.807 30.035 101.977 29.3 101.977 28.5C101.977 27.69 101.807 26.955 101.467 26.295C101.127 25.625 100.652 25.095 100.042 24.705C99.4423 24.315 98.7573 24.12 97.9873 24.12C97.2173 24.12 96.5123 24.32 95.8723 24.72C95.2423 25.11 94.7373 25.635 94.3573 26.295C93.9873 26.955 93.8023 27.69 93.8023 28.5C93.8023 29.31 93.9923 30.045 94.3723 30.705C94.7523 31.365 95.2573 31.89 95.8873 32.28C96.5273 32.67 97.2273 32.865 97.9873 32.865ZM109.556 21H113.216V36H109.556V21ZM111.416 19.065C110.876 19.065 110.421 18.89 110.051 18.54C109.681 18.18 109.496 17.73 109.496 17.19C109.496 16.66 109.681 16.215 110.051 15.855C110.421 15.495 110.871 15.315 111.401 15.315C111.931 15.315 112.376 15.495 112.736 15.855C113.106 16.215 113.291 16.66 113.291 17.19C113.291 17.73 113.111 18.18 112.751 18.54C112.391 18.89 111.946 19.065 111.416 19.065ZM127.81 13.5H131.47V36H127.81V34.125C127.33 34.795 126.725 35.34 125.995 35.76C125.265 36.18 124.42 36.39 123.46 36.39C122.37 36.39 121.35 36.185 120.4 35.775C119.45 35.365 118.61 34.8 117.88 34.08C117.16 33.35 116.595 32.51 116.185 31.56C115.775 30.61 115.57 29.59 115.57 28.5C115.57 27.41 115.775 26.39 116.185 25.44C116.595 24.49 117.16 23.655 117.88 22.935C118.61 22.205 119.45 21.635 120.4 21.225C121.35 20.815 122.37 20.61 123.46 20.61C124.42 20.61 125.265 20.82 125.995 21.24C126.725 21.65 127.33 22.195 127.81 22.875V13.5ZM123.505 32.865C124.285 32.865 124.975 32.67 125.575 32.28C126.175 31.89 126.645 31.365 126.985 30.705C127.325 30.035 127.495 29.3 127.495 28.5C127.495 27.69 127.325 26.955 126.985 26.295C126.645 25.625 126.17 25.095 125.56 24.705C124.96 24.315 124.275 24.12 123.505 24.12C122.735 24.12 122.03 24.32 121.39 24.72C120.76 25.11 120.255 25.635 119.875 26.295C119.505 26.955 119.32 27.69 119.32 28.5C119.32 29.31 119.51 30.045 119.89 30.705C120.27 31.365 120.775 31.89 121.405 32.28C122.045 32.67 122.745 32.865 123.505 32.865ZM146.149 21H149.809V36H146.149L145.984 34.14C145.574 34.81 145.029 35.355 144.349 35.775C143.679 36.185 142.884 36.39 141.964 36.39C140.854 36.39 139.814 36.18 138.844 35.76C137.874 35.34 137.019 34.76 136.279 34.02C135.549 33.28 134.974 32.425 134.554 31.455C134.144 30.485 133.939 29.445 133.939 28.335C133.939 27.265 134.134 26.26 134.524 25.32C134.924 24.38 135.479 23.555 136.189 22.845C136.899 22.135 137.719 21.58 138.649 21.18C139.579 20.78 140.579 20.58 141.649 20.58C142.639 20.58 143.524 20.8 144.304 21.24C145.094 21.68 145.764 22.24 146.314 22.92L146.149 21ZM141.874 32.865C142.654 32.865 143.344 32.67 143.944 32.28C144.544 31.89 145.014 31.365 145.354 30.705C145.694 30.035 145.864 29.3 145.864 28.5C145.864 27.69 145.694 26.955 145.354 26.295C145.014 25.625 144.539 25.095 143.929 24.705C143.329 24.315 142.644 24.12 141.874 24.12C141.104 24.12 140.399 24.32 139.759 24.72C139.129 25.11 138.624 25.635 138.244 26.295C137.874 26.955 137.689 27.69 137.689 28.5C137.689 29.31 137.879 30.045 138.259 30.705C138.639 31.365 139.144 31.89 139.774 32.28C140.414 32.67 141.114 32.865 141.874 32.865ZM157.223 36.27C156.443 36.22 155.688 36.065 154.958 35.805C154.238 35.535 153.598 35.17 153.038 34.71C152.478 34.25 152.048 33.7 151.748 33.06L154.838 31.74C154.958 31.94 155.153 32.155 155.423 32.385C155.693 32.605 156.013 32.79 156.383 32.94C156.763 33.09 157.178 33.165 157.628 33.165C158.008 33.165 158.368 33.115 158.708 33.015C159.058 32.905 159.338 32.74 159.548 32.52C159.768 32.3 159.878 32.015 159.878 31.665C159.878 31.295 159.748 31.01 159.488 30.81C159.238 30.6 158.918 30.445 158.528 30.345C158.148 30.235 157.778 30.135 157.418 30.045C156.468 29.855 155.583 29.56 154.763 29.16C153.953 28.76 153.298 28.245 152.798 27.615C152.308 26.975 152.063 26.205 152.063 25.305C152.063 24.315 152.323 23.46 152.843 22.74C153.373 22.02 154.058 21.465 154.898 21.075C155.748 20.685 156.663 20.49 157.643 20.49C158.833 20.49 159.923 20.74 160.913 21.24C161.913 21.73 162.703 22.425 163.283 23.325L160.388 25.035C160.248 24.795 160.053 24.575 159.803 24.375C159.553 24.165 159.268 23.995 158.948 23.865C158.628 23.725 158.293 23.645 157.943 23.625C157.493 23.605 157.083 23.645 156.713 23.745C156.343 23.845 156.043 24.015 155.813 24.255C155.593 24.495 155.483 24.815 155.483 25.215C155.483 25.595 155.633 25.88 155.933 26.07C156.233 26.25 156.593 26.39 157.013 26.49C157.443 26.59 157.853 26.7 158.243 26.82C159.123 27.11 159.948 27.465 160.718 27.885C161.498 28.305 162.123 28.82 162.593 29.43C163.063 30.04 163.288 30.77 163.268 31.62C163.268 32.59 162.978 33.44 162.398 34.17C161.818 34.89 161.068 35.44 160.148 35.82C159.238 36.2 158.263 36.35 157.223 36.27Z" fill="white" fill-opacity="0.8"/>
<defs>
<clipPath id="clip0_1089_99">
<rect width="50" height="50" fill="white" transform="translate(0.791016)"/>
</clipPath>
</defs>
</svg>
