<svg width="46" height="38" viewBox="0 0 46 38" fill="none" xmlns="http://www.w3.org/2000/svg">
<rect width="46" height="38" rx="4" fill="#1F1F1F"/>
<path d="M14.2929 18.2929C13.9024 18.6834 13.9024 19.3166 14.2929 19.7071L20.6569 26.0711C21.0474 26.4616 21.6805 26.4616 22.0711 26.0711C22.4616 25.6805 22.4616 25.0474 22.0711 24.6569L16.4142 19L22.0711 13.3431C22.4616 12.9526 22.4616 12.3195 22.0711 11.9289C21.6805 11.5384 21.0474 11.5384 20.6569 11.9289L14.2929 18.2929ZM31 20C31.5523 20 32 19.5523 32 19C32 18.4477 31.5523 18 31 18V20ZM15 20H31V18H15V20Z" fill="white" fill-opacity="0.75"/>
</svg>
