<svg width="46" height="38" viewBox="0 0 46 38" fill="none" xmlns="http://www.w3.org/2000/svg">
<rect width="46" height="38" rx="4" fill="#1F1F1F"/>
<path d="M15 18C14.4477 18 14 18.4477 14 19C14 19.5523 14.4477 20 15 20V18ZM31.7071 19.7071C32.0976 19.3166 32.0976 18.6834 31.7071 18.2929L25.3431 11.9289C24.9526 11.5384 24.3195 11.5384 23.9289 11.9289C23.5384 12.3195 23.5384 12.9526 23.9289 13.3431L29.5858 19L23.9289 24.6569C23.5384 25.0474 23.5384 25.6805 23.9289 26.0711C24.3195 26.4616 24.9526 26.4616 25.3431 26.0711L31.7071 19.7071ZM15 20H31V18H15V20Z" fill="white" fill-opacity="0.75"/>
</svg>
