<svg width="22" height="22" viewBox="0 0 22 22" fill="none" xmlns="http://www.w3.org/2000/svg">
<path d="M21.0833 10.0833H20.1667V5.5C20.1667 3.98383 18.9328 2.75 17.4167 2.75C15.9005 2.75 14.6667 3.98383 14.6667 5.5V10.0833H7.33333V5.5C7.33333 3.98383 6.0995 2.75 4.58333 2.75C3.06717 2.75 1.83333 3.98383 1.83333 5.5V10.0833H0.916667C0.410667 10.0833 0 10.494 0 11C0 11.506 0.410667 11.9167 0.916667 11.9167H1.83333V16.5C1.83333 18.0162 3.06717 19.25 4.58333 19.25C6.0995 19.25 7.33333 18.0162 7.33333 16.5V11.9167H14.6667V16.5C14.6667 18.0162 15.9005 19.25 17.4167 19.25C18.9328 19.25 20.1667 18.0162 20.1667 16.5V11.9167H21.0833C21.5893 11.9167 22 11.506 22 11C22 10.494 21.5893 10.0833 21.0833 10.0833Z" fill="#121212"/>
</svg>
