<svg width="30" height="30" viewBox="0 0 30 30" fill="none" xmlns="http://www.w3.org/2000/svg">
<rect width="30" height="30" rx="15" fill="white" fill-opacity="0.12"/>
<path d="M15.5558 9.58301C16.1652 9.58463 16.4745 9.58788 16.7416 9.59547L16.8466 9.59926C16.968 9.60359 17.0877 9.60901 17.2323 9.61551C17.8086 9.64259 18.2019 9.73359 18.5469 9.86738C18.9044 10.005 19.2056 10.1913 19.5068 10.4919C19.7822 10.7627 19.9953 11.0902 20.1313 11.4518C20.2651 11.7968 20.3561 12.19 20.3832 12.7669C20.3897 12.911 20.3951 13.0307 20.3994 13.1526L20.4027 13.2577C20.4108 13.5242 20.4141 13.8335 20.4151 14.4428L20.4157 14.8469V15.5565C20.417 15.9516 20.4129 16.3467 20.4032 16.7417L20.4 16.8468C20.3956 16.9686 20.3902 17.0883 20.3837 17.2324C20.3566 17.8093 20.2646 18.202 20.1313 18.5476C19.9957 18.9093 19.7825 19.2369 19.5068 19.5074C19.2359 19.7828 18.9084 19.9959 18.5469 20.132C18.2019 20.2658 17.8086 20.3568 17.2323 20.3838C17.1038 20.3899 16.9752 20.3953 16.8466 20.4001L16.7416 20.4033C16.4745 20.4109 16.1652 20.4147 15.5558 20.4158L15.1518 20.4163H14.4427C14.0474 20.4177 13.6522 20.4136 13.257 20.4039L13.1519 20.4006C13.0233 20.3958 12.8948 20.3902 12.7663 20.3838C12.1899 20.3568 11.7967 20.2658 11.4511 20.132C11.0896 19.9962 10.7622 19.7831 10.4918 19.5074C10.2161 19.2367 10.0028 18.9092 9.86672 18.5476C9.73293 18.2025 9.64193 17.8093 9.61484 17.2324C9.60881 17.1039 9.60339 16.9753 9.59859 16.8468L9.59589 16.7417C9.5859 16.3467 9.58139 15.9516 9.58234 15.5565V14.4428C9.58083 14.0477 9.5848 13.6527 9.59426 13.2577L9.59805 13.1526C9.60239 13.0307 9.6078 12.911 9.6143 12.7669C9.64139 12.19 9.73239 11.7973 9.86618 11.4518C10.0022 11.0899 10.2159 10.7622 10.4923 10.4919C10.7627 10.2165 11.0899 10.0033 11.4511 9.86738C11.7967 9.73359 12.1894 9.64259 12.7663 9.61551C12.9103 9.60901 13.0306 9.60359 13.1519 9.59926L13.257 9.59601C13.652 9.58638 14.0471 9.58223 14.4422 9.58355L15.5558 9.58301ZM14.999 12.2913C14.2807 12.2913 13.5918 12.5767 13.0839 13.0846C12.576 13.5925 12.2907 14.2814 12.2907 14.9997C12.2907 15.718 12.576 16.4068 13.0839 16.9148C13.5918 17.4227 14.2807 17.708 14.999 17.708C15.7173 17.708 16.4062 17.4227 16.9141 16.9148C17.422 16.4068 17.7073 15.718 17.7073 14.9997C17.7073 14.2814 17.422 13.5925 16.9141 13.0846C16.4062 12.5767 15.7173 12.2913 14.999 12.2913ZM14.999 13.3747C15.2124 13.3746 15.4237 13.4166 15.6209 13.4983C15.8181 13.5799 15.9972 13.6996 16.1481 13.8504C16.2991 14.0013 16.4188 14.1804 16.5005 14.3776C16.5822 14.5747 16.6242 14.786 16.6243 14.9994C16.6243 15.2128 16.5823 15.4241 16.5007 15.6213C16.4191 15.8185 16.2994 15.9976 16.1485 16.1485C15.9977 16.2995 15.8185 16.4192 15.6214 16.5009C15.4243 16.5826 15.213 16.6246 14.9996 16.6247C14.5686 16.6247 14.1553 16.4535 13.8505 16.1487C13.5458 15.844 13.3746 15.4307 13.3746 14.9997C13.3746 14.5687 13.5458 14.1554 13.8505 13.8506C14.1553 13.5459 14.5686 13.3747 14.9996 13.3747M17.8433 11.4788C17.6637 11.4788 17.4915 11.5502 17.3645 11.6772C17.2376 11.8041 17.1662 11.9764 17.1662 12.1559C17.1662 12.3355 17.2376 12.5077 17.3645 12.6347C17.4915 12.7617 17.6637 12.833 17.8433 12.833C18.0229 12.833 18.1951 12.7617 18.3221 12.6347C18.4491 12.5077 18.5204 12.3355 18.5204 12.1559C18.5204 11.9764 18.4491 11.8041 18.3221 11.6772C18.1951 11.5502 18.0229 11.4788 17.8433 11.4788Z" fill="white"/>
</svg>
