<svg width="22" height="22" viewBox="0 0 22 22" fill="none" xmlns="http://www.w3.org/2000/svg">
<g clip-path="url(#clip0_1138_240)">
<path d="M12.833 6.43028V0.434362C13.6699 0.751529 14.4399 1.24011 15.0926 1.89186L18.2863 5.08736C18.9389 5.73911 19.4275 6.50911 19.7447 7.34603H13.7497C13.2437 7.34603 12.833 6.93536 12.833 6.43028ZM20.1443 9.18028H13.7497C12.2335 9.18028 10.9997 7.94645 10.9997 6.43028V0.0346953C10.8521 0.024612 10.7045 0.0126953 10.5551 0.0126953H6.41634C3.88909 0.013612 1.83301 2.0697 1.83301 4.59695V17.4303C1.83301 19.9575 3.88909 22.0136 6.41634 22.0136H15.583C18.1103 22.0136 20.1663 19.9575 20.1663 17.4303V9.62486C20.1663 9.47545 20.1544 9.32786 20.1443 9.18028ZM13.7497 14.6665H8.24967C7.74367 14.6665 7.33301 14.2559 7.33301 13.7499C7.33301 13.2439 7.74367 12.8332 8.24967 12.8332H13.7497C14.2557 12.8332 14.6663 13.2439 14.6663 13.7499C14.6663 14.2559 14.2557 14.6665 13.7497 14.6665Z" fill="#121212"/>
</g>
<defs>
<clipPath id="clip0_1138_240">
<rect width="22" height="22" fill="white"/>
</clipPath>
</defs>
</svg>
