<svg width="26" height="27" viewBox="0 0 26 27" fill="none" xmlns="http://www.w3.org/2000/svg">
<g clip-path="url(#clip0_1089_35)">
<path d="M9.20835 0.5C5.9226 0.5 3.25002 3.17258 3.25002 6.45833C3.25002 9.74408 5.9226 12.4167 9.20835 12.4167C12.4941 12.4167 15.1667 9.74408 15.1667 6.45833C15.1667 3.17258 12.4941 0.5 9.20835 0.5ZM9.20835 8.08333C8.31135 8.08333 7.58335 7.35533 7.58335 6.45833C7.58335 5.56133 8.31135 4.83333 9.20835 4.83333C10.1053 4.83333 10.8333 5.56133 10.8333 6.45833C10.8333 7.35533 10.1053 8.08333 9.20835 8.08333ZM26 23.0951C26 23.0951 20.9441 26.5 13 26.5C5.05593 26.5 0.00976562 20.8255 0.00976562 20.8255C0.00976562 18.7672 0.290349 14.6364 2.13202 10.4385C3.26518 12.4448 5.22168 13.9258 7.54327 14.4111C7.4371 15.6938 7.22585 16.9342 6.81093 17.9785C8.32977 16.5897 10.9666 14.5844 13.5417 14.5844C15.8438 14.5844 18.0072 16.6861 18.0267 16.7078L19.643 15.2648C19.5964 15.2128 19.0764 14.6397 18.2228 14.0211C19.3007 13.2162 20.7177 12.4178 22.1249 12.4178C24.3945 12.4178 26 12.9594 26 12.9594V23.0951Z" fill="#C7FF26"/>
</g>
<defs>
<clipPath id="clip0_1089_35">
<rect width="26" height="26" fill="white" transform="translate(0 0.5)"/>
</clipPath>
</defs>
</svg>
