<svg width="27" height="27" viewBox="0 0 27 27" fill="none" xmlns="http://www.w3.org/2000/svg">
<circle cx="13.5" cy="13.5" r="13.5" fill="white" fill-opacity="0.15"/>
<path d="M17.3139 9.68611C17.1947 9.56694 17.033 9.5 16.8645 9.5C16.6959 9.5 16.5343 9.56694 16.4151 9.68611L13.5 12.6012L10.5849 9.68611C10.4657 9.56694 10.3041 9.5 10.1355 9.5C9.96696 9.5 9.80531 9.56694 9.68611 9.68611C9.56694 9.80531 9.5 9.96696 9.5 10.1355C9.5 10.3041 9.56694 10.4657 9.68611 10.5849L12.6012 13.5L9.68611 16.4151C9.56694 16.5343 9.5 16.6959 9.5 16.8645C9.5 17.033 9.56694 17.1947 9.68611 17.3139C9.80531 17.4331 9.96696 17.5 10.1355 17.5C10.3041 17.5 10.4657 17.4331 10.5849 17.3139L13.5 14.3988L16.4151 17.3139C16.5343 17.4331 16.6959 17.5 16.8645 17.5C17.033 17.5 17.1947 17.4331 17.3139 17.3139C17.4331 17.1947 17.5 17.033 17.5 16.8645C17.5 16.6959 17.4331 16.5343 17.3139 16.4151L14.3988 13.5L17.3139 10.5849C17.4331 10.4657 17.5 10.3041 17.5 10.1355C17.5 9.96696 17.4331 9.80531 17.3139 9.68611Z" fill="white" fill-opacity="0.45"/>
</svg>
