<svg width="22" height="24" viewBox="0 0 22 24" fill="none" xmlns="http://www.w3.org/2000/svg">
<g clip-path="url(#clip0_1089_147)">
<path d="M12.8333 12C12.8333 13.103 12.0111 14 11 14C9.98892 14 9.16667 13.103 9.16667 12C9.16667 10.897 9.98892 9.99998 11 9.99998C12.0111 9.99998 12.8333 10.897 12.8333 12ZM22 8.65898V15C22 17.761 19.9476 20 17.4167 20H2.79767L3.85642 21.293C4.21392 21.683 4.21392 22.317 3.85642 22.707C3.498 23.098 2.91775 23.098 2.56025 22.707L0.50325 20.326C-0.16775 19.594 -0.16775 18.407 0.50325 17.675L2.56025 15.294C2.91775 14.903 3.49892 14.903 3.85642 15.294C4.21392 15.685 4.21392 16.318 3.85642 16.708L2.79767 18.001H5.24883C5.7035 17.45 5.95833 16.748 5.95833 16.001C5.95833 15.199 5.67233 14.445 5.1535 13.881C4.11583 12.747 2.34117 12.703 1.22558 13.923L0 15.342V9.00098C0 6.23998 2.05242 4.00098 4.58333 4.00098H19.2023L18.1436 2.70798C17.7861 2.31698 17.7861 1.68398 18.1436 1.29398C18.502 0.902982 19.0823 0.902982 19.4398 1.29398L21.4967 3.67498C22.1678 4.40698 22.1678 5.59398 21.4967 6.32598L19.4398 8.70698C19.0823 9.09698 18.5011 9.09698 18.1436 8.70698C17.7861 8.31598 17.7861 7.68298 18.1436 7.29298L19.2023 5.99998H16.7512C16.2965 6.55098 16.0417 7.25298 16.0417 7.99998C16.0417 8.80198 16.3277 9.55598 16.8465 10.12C17.3653 10.687 18.0565 11 18.7917 11C19.5268 11 20.2171 10.688 20.7744 10.079L22 8.65898ZM6.41667 9.49998C6.41667 8.67198 5.80067 7.99998 5.04167 7.99998C4.28267 7.99998 3.66667 8.67198 3.66667 9.49998C3.66667 10.328 4.28267 11 5.04167 11C5.80067 11 6.41667 10.328 6.41667 9.49998ZM14.6667 12C14.6667 9.79398 13.0222 7.99998 11 7.99998C8.97783 7.99998 7.33333 9.79398 7.33333 12C7.33333 14.206 8.97783 16 11 16C13.0222 16 14.6667 14.206 14.6667 12ZM18.3333 14.5C18.3333 13.672 17.7173 13 16.9583 13C16.1993 13 15.5833 13.672 15.5833 14.5C15.5833 15.328 16.1993 16 16.9583 16C17.7173 16 18.3333 15.328 18.3333 14.5Z" fill="#121212"/>
</g>
<defs>
<clipPath id="clip0_1089_147">
<rect width="22" height="24" fill="white"/>
</clipPath>
</defs>
</svg>
