<svg width="164" height="50" viewBox="0 0 164 50" fill="none" xmlns="http://www.w3.org/2000/svg">
<path d="M36.9337 12.0087L40.5394 5.74497C41.5904 3.91101 40.9721 1.56226 39.1383 0.51143C37.3046 -0.539404 34.9556 0.0787213 33.9048 1.91247L30.2783 8.17622C22.5721 5.74497 13.9387 8.89747 9.7354 16.1914C7.05686 20.8275 6.72707 26.1641 8.35498 30.8414L15.0308 19.2616C16.5558 16.6035 19.0487 14.7079 22.0158 13.9043C24.9829 13.1008 28.0737 13.5127 30.7316 15.0583C36.2125 18.2312 38.1081 25.2781 34.935 30.7589C31.7621 36.2398 24.7356 38.1354 19.2342 34.9623L23.0667 28.3277C24.9006 29.3785 27.2494 28.7604 28.3004 26.9264C29.3512 25.0927 28.7329 22.7437 26.8992 21.6931C25.0654 20.6421 22.7164 21.2602 21.6656 23.0941L9.46769 44.255C8.41686 46.0889 9.03498 48.4377 10.8687 49.4885C12.7025 50.5393 15.0514 49.9212 16.1023 48.0875L19.7289 41.8237C27.4352 44.255 36.0685 41.1025 40.2719 33.8085C44.4752 26.535 42.8883 17.4898 36.9337 12.0087Z" fill="white" fill-opacity="0.8"/>
<path d="M66.8 36V15H74.3C75.44 15 76.47 15.285 77.39 15.855C78.32 16.425 79.055 17.19 79.595 18.15C80.135 19.11 80.405 20.165 80.405 21.315C80.405 22.495 80.125 23.565 79.565 24.525C79.015 25.475 78.275 26.235 77.345 26.805C76.415 27.365 75.4 27.645 74.3 27.645H70.46V36H66.8ZM70.46 23.985H73.91C74.43 23.985 74.905 23.855 75.335 23.595C75.765 23.335 76.105 22.985 76.355 22.545C76.615 22.105 76.745 21.615 76.745 21.075C76.745 20.525 76.615 20.03 76.355 19.59C76.105 19.15 75.765 18.8 75.335 18.54C74.905 18.28 74.43 18.15 73.91 18.15H70.46V23.985ZM88.7223 36.39C87.3423 36.39 86.0823 36.035 84.9423 35.325C83.8123 34.615 82.9073 33.66 82.2273 32.46C81.5573 31.26 81.2223 29.935 81.2223 28.485C81.2223 27.395 81.4173 26.375 81.8073 25.425C82.1973 24.465 82.7323 23.625 83.4123 22.905C84.1023 22.175 84.9023 21.605 85.8123 21.195C86.7223 20.785 87.6923 20.58 88.7223 20.58C89.8923 20.58 90.9623 20.83 91.9323 21.33C92.9123 21.82 93.7423 22.495 94.4223 23.355C95.1023 24.215 95.5973 25.195 95.9073 26.295C96.2173 27.395 96.2873 28.545 96.1173 29.745H85.1523C85.2923 30.305 85.5223 30.81 85.8423 31.26C86.1623 31.7 86.5673 32.055 87.0573 32.325C87.5473 32.585 88.1023 32.72 88.7223 32.73C89.3623 32.74 89.9423 32.59 90.4623 32.28C90.9923 31.96 91.4323 31.53 91.7823 30.99L95.5173 31.86C94.9073 33.19 93.9973 34.28 92.7873 35.13C91.5773 35.97 90.2223 36.39 88.7223 36.39ZM85.0323 27H92.4123C92.3023 26.4 92.0673 25.86 91.7073 25.38C91.3573 24.89 90.9223 24.5 90.4023 24.21C89.8823 23.92 89.3223 23.775 88.7223 23.775C88.1223 23.775 87.5673 23.92 87.0573 24.21C86.5473 24.49 86.1123 24.875 85.7523 25.365C85.4023 25.845 85.1623 26.39 85.0323 27ZM98.3234 36V13.5H101.983V36H98.3234ZM111.955 36.39C110.575 36.39 109.315 36.035 108.175 35.325C107.045 34.615 106.14 33.665 105.46 32.475C104.79 31.275 104.455 29.95 104.455 28.5C104.455 27.4 104.65 26.375 105.04 25.425C105.43 24.465 105.965 23.625 106.645 22.905C107.335 22.175 108.135 21.605 109.045 21.195C109.955 20.785 110.925 20.58 111.955 20.58C113.335 20.58 114.59 20.935 115.72 21.645C116.86 22.355 117.765 23.31 118.435 24.51C119.115 25.71 119.455 27.04 119.455 28.5C119.455 29.59 119.26 30.61 118.87 31.56C118.48 32.51 117.94 33.35 117.25 34.08C116.57 34.8 115.775 35.365 114.865 35.775C113.965 36.185 112.995 36.39 111.955 36.39ZM111.955 32.73C112.685 32.73 113.34 32.535 113.92 32.145C114.5 31.755 114.955 31.24 115.285 30.6C115.625 29.96 115.795 29.26 115.795 28.5C115.795 27.72 115.62 27.01 115.27 26.37C114.93 25.72 114.465 25.205 113.875 24.825C113.295 24.435 112.655 24.24 111.955 24.24C111.235 24.24 110.585 24.435 110.005 24.825C109.425 25.215 108.965 25.735 108.625 26.385C108.285 27.035 108.115 27.74 108.115 28.5C108.115 29.29 108.29 30.005 108.64 30.645C108.99 31.285 109.455 31.795 110.035 32.175C110.625 32.545 111.265 32.73 111.955 32.73ZM129.83 24.66H126.92V36H123.26V24.66H121.04V21H123.26V16.29H126.92V21H129.83V24.66ZM138.791 36.39C137.411 36.39 136.151 36.035 135.011 35.325C133.881 34.615 132.976 33.665 132.296 32.475C131.626 31.275 131.291 29.95 131.291 28.5C131.291 27.4 131.486 26.375 131.876 25.425C132.266 24.465 132.801 23.625 133.481 22.905C134.171 22.175 134.971 21.605 135.881 21.195C136.791 20.785 137.761 20.58 138.791 20.58C140.171 20.58 141.426 20.935 142.556 21.645C143.696 22.355 144.601 23.31 145.271 24.51C145.951 25.71 146.291 27.04 146.291 28.5C146.291 29.59 146.096 30.61 145.706 31.56C145.316 32.51 144.776 33.35 144.086 34.08C143.406 34.8 142.611 35.365 141.701 35.775C140.801 36.185 139.831 36.39 138.791 36.39ZM138.791 32.73C139.521 32.73 140.176 32.535 140.756 32.145C141.336 31.755 141.791 31.24 142.121 30.6C142.461 29.96 142.631 29.26 142.631 28.5C142.631 27.72 142.456 27.01 142.106 26.37C141.766 25.72 141.301 25.205 140.711 24.825C140.131 24.435 139.491 24.24 138.791 24.24C138.071 24.24 137.421 24.435 136.841 24.825C136.261 25.215 135.801 25.735 135.461 26.385C135.121 27.035 134.951 27.74 134.951 28.5C134.951 29.29 135.126 30.005 135.476 30.645C135.826 31.285 136.291 31.795 136.871 32.175C137.461 32.545 138.101 32.73 138.791 32.73ZM162.366 26.52V36H158.706V27.48C158.706 26.89 158.561 26.355 158.271 25.875C157.981 25.385 157.591 25 157.101 24.72C156.621 24.43 156.086 24.285 155.496 24.285C154.906 24.285 154.366 24.43 153.876 24.72C153.396 25 153.011 25.385 152.721 25.875C152.441 26.355 152.301 26.89 152.301 27.48V36H148.641L148.626 21H152.286L152.301 22.335C152.811 21.795 153.421 21.37 154.131 21.06C154.841 20.74 155.606 20.58 156.426 20.58C157.516 20.58 158.511 20.85 159.411 21.39C160.311 21.92 161.026 22.635 161.556 23.535C162.096 24.425 162.366 25.42 162.366 26.52Z" fill="white" fill-opacity="0.8"/>
</svg>
