<svg width="22" height="24" viewBox="0 0 22 24" fill="none" xmlns="http://www.w3.org/2000/svg">
<g clip-path="url(#clip0_1089_125)">
<path d="M22 2H21.0833V0H18.3333V2H3.66667V0H0.916667V2H0V5H0.916667V7H3.66667V5H5.17L7.33333 12.543V24H10.0833V18H11.9167V24H14.6667V12.543L16.83 5H18.3333V7H21.0833V5H22V2ZM13.2917 7.5C13.2917 8.881 12.2659 10 11 10C9.73408 10 8.70833 8.881 8.70833 7.5C8.70833 6.119 9.73408 5 11 5C12.2659 5 13.2917 6.119 13.2917 7.5Z" fill="#121212"/>
</g>
<defs>
<clipPath id="clip0_1089_125">
<rect width="22" height="24" fill="white"/>
</clipPath>
</defs>
</svg>
