<svg width="176" height="28" viewBox="0 0 176 28" fill="none" xmlns="http://www.w3.org/2000/svg">
<path d="M144.763 1.45832L145.098 21.1021H144.93L139.243 1.46562H129.888V26.199H136.071L135.736 5.89165H135.903L141.999 26.199H150.946V1.46562L144.763 1.45832ZM27.0022 1.45832L22.3283 26.4542H29.0949L32.522 3.71874H32.6897L36.0366 26.4542H42.7158L38.122 1.46562L27.0022 1.45832ZM64.7803 1.45832L61.6887 20.5187H61.521L58.4293 1.46562H48.2428L47.7397 26.4542H54.0105L54.1783 3.97395H54.2585L58.4366 26.4542H64.7876L68.9658 3.97395H69.1335L69.3012 26.4542H75.572L74.9887 1.46562L64.7803 1.45832ZM11.7991 19.3521C11.9892 19.9465 12.0169 20.5809 11.8793 21.1896C11.7116 22.0208 11.1283 22.8594 9.45846 22.8594C7.86888 22.8594 6.95013 21.9406 6.95013 20.5989V18.1781H0.263672V20.1031C0.263672 25.7031 4.68971 27.3729 9.37825 27.3729C13.8845 27.3729 17.647 25.7833 18.2303 21.6854C18.5658 19.5125 18.3178 18.0979 18.2303 17.5948C17.0637 12.3302 7.53346 10.8208 6.86263 7.89687C6.77918 7.45599 6.77918 7.00336 6.86263 6.56249C7.03034 5.72394 7.62096 4.88541 9.12305 4.88541C10.6251 4.88541 11.4564 5.81145 11.4564 7.14583V8.6479H17.7272V6.89791C17.7272 1.46561 12.798 0.627075 9.29076 0.627075C4.85742 0.627075 1.18242 2.12916 0.511589 6.14687C0.292143 7.25273 0.322035 8.39359 0.599089 9.48644C1.59805 14.6635 10.5449 16.1729 11.7991 19.3448M93.1158 19.3448C93.3637 19.9281 93.2762 20.6864 93.196 21.1896C93.0283 22.0208 92.4449 22.8594 90.7751 22.8594C89.1855 22.8594 88.2668 21.9406 88.2668 20.5989V18.1781H81.5803V20.1031C81.5803 25.6156 85.9262 27.2854 90.6074 27.2854C95.121 27.2854 98.796 25.7833 99.3793 21.6052C99.7147 19.4323 99.4668 18.0979 99.3793 17.5073C98.3803 12.3302 88.9303 10.7406 88.2668 7.89687C88.1827 7.45605 88.1827 7.0033 88.2668 6.56249C88.4345 5.72394 89.0178 4.88541 90.5272 4.88541C91.9418 4.88541 92.8605 5.81145 92.8605 7.14583V8.6479H99.0439V6.89791C99.0439 1.46561 94.1949 0.627075 90.6876 0.627075C86.2616 0.627075 82.6668 2.04895 81.996 6.14687C81.8282 7.23333 81.8283 8.23228 82.0835 9.48644C83.0824 14.6635 91.8543 16.0854 93.1158 19.3448ZM114.174 22.6917C115.924 22.6917 116.435 21.525 116.595 20.8542C116.682 20.5989 116.682 20.1833 116.682 19.9354V1.45832H123.026V19.425C123.026 19.9281 123.026 20.8469 122.953 21.1021C122.53 25.776 118.855 27.2781 114.254 27.2781C109.661 27.2781 105.986 25.776 105.563 21.0948C105.563 20.8469 105.482 19.9281 105.482 19.425V1.45832H111.826V19.9281C111.826 20.2635 111.826 20.5917 111.914 20.8469C111.914 21.5104 112.424 22.6844 114.174 22.6844M166.324 22.4364C168.162 22.4364 168.745 21.2698 168.913 20.5917C168.993 20.3437 168.993 19.9281 168.993 19.6729V16.0781H166.404V12.4031H175.264V19.0896C175.264 19.5927 175.264 19.9281 175.183 20.7667C174.761 25.3604 170.83 26.9427 166.404 26.9427C161.978 26.9427 158.048 25.3604 157.632 20.7594C157.545 19.9281 157.545 19.5927 157.545 19.0896V8.5604C157.545 8.14478 157.632 7.30624 157.632 6.88332C158.216 2.20937 161.978 0.707281 166.404 0.707281C170.83 0.707281 174.68 2.20936 175.176 6.89061C175.264 7.64165 175.264 8.5604 175.264 8.5604V9.39895H168.993V7.97707C168.993 7.97707 168.993 7.39374 168.913 7.05833C168.825 6.47499 168.329 5.22082 166.404 5.22082C164.567 5.22082 164.071 6.38749 163.896 7.05833C163.816 7.38645 163.816 7.80937 163.816 8.22499V19.6729C163.816 20.0083 163.816 20.3437 163.896 20.5917C163.896 21.2625 164.567 22.4364 166.324 22.4364Z" fill="white" fill-opacity="0.8"/>
</svg>
