<svg width="168" height="50" viewBox="0 0 168 50" fill="none" xmlns="http://www.w3.org/2000/svg">
<path d="M25.5273 0C11.7773 0 0.527344 11.25 0.527344 25C0.527344 38.75 11.7773 50 25.5273 50C39.2773 50 50.5273 38.75 50.5273 25C50.5273 11.25 39.4023 0 25.5273 0ZM37.0294 36.125C36.5294 36.8729 35.6544 37.125 34.9023 36.625C29.0273 33 21.6523 32.2479 12.9003 34.2479C12.0294 34.5021 11.2773 33.875 11.0273 33.125C10.7773 32.2479 11.4023 31.5 12.1523 31.25C21.6523 29.1229 29.9023 30 36.4023 34C37.2773 34.375 37.4003 35.3729 37.0294 36.125ZM40.0294 29.25C39.4023 30.125 38.2773 30.5 37.4003 29.875C30.6523 25.75 20.4023 24.5 12.5273 27C11.5294 27.25 10.4023 26.75 10.1523 25.75C9.90234 24.75 10.4023 23.6229 11.4023 23.3729C20.5273 20.625 31.7773 22.0021 39.5273 26.75C40.2794 27.1271 40.6523 28.375 40.0294 29.25ZM40.2794 22.25C32.2773 17.5 18.9023 17 11.2773 19.3771C10.0273 19.75 8.77734 19 8.40234 17.875C8.02734 16.6229 8.77734 15.375 9.90234 14.9979C18.7773 12.3729 33.4023 12.8729 42.6544 18.375C43.7773 19 44.1523 20.5 43.5273 21.625C42.9044 22.5021 41.4023 22.8729 40.2794 22.25Z" fill="white" fill-opacity="0.8"/>
<path d="M77.8873 36.39C76.7273 36.39 75.6123 36.21 74.5423 35.85C73.4823 35.48 72.5523 34.955 71.7523 34.275C70.9523 33.585 70.3773 32.76 70.0273 31.8L73.4623 30.54C73.6023 30.94 73.8873 31.305 74.3173 31.635C74.7473 31.965 75.2723 32.23 75.8923 32.43C76.5123 32.63 77.1773 32.73 77.8873 32.73C78.6173 32.73 79.2973 32.62 79.9273 32.4C80.5673 32.17 81.0823 31.855 81.4723 31.455C81.8623 31.045 82.0573 30.57 82.0573 30.03C82.0573 29.48 81.8523 29.03 81.4423 28.68C81.0323 28.32 80.5073 28.035 79.8673 27.825C79.2273 27.615 78.5673 27.455 77.8873 27.345C76.3973 27.115 75.0623 26.76 73.8823 26.28C72.7023 25.8 71.7673 25.135 71.0773 24.285C70.3973 23.435 70.0573 22.335 70.0573 20.985C70.0573 19.715 70.4223 18.605 71.1523 17.655C71.8823 16.705 72.8423 15.965 74.0323 15.435C75.2223 14.905 76.5073 14.64 77.8873 14.64C79.0373 14.64 80.1473 14.82 81.2173 15.18C82.2873 15.54 83.2223 16.065 84.0223 16.755C84.8323 17.445 85.4123 18.275 85.7623 19.245L82.3123 20.49C82.1723 20.09 81.8873 19.725 81.4573 19.395C81.0273 19.065 80.5023 18.805 79.8823 18.615C79.2623 18.415 78.5973 18.315 77.8873 18.315C77.1773 18.305 76.5023 18.42 75.8623 18.66C75.2323 18.89 74.7173 19.205 74.3173 19.605C73.9173 20.005 73.7173 20.465 73.7173 20.985C73.7173 21.655 73.9023 22.16 74.2723 22.5C74.6523 22.84 75.1573 23.09 75.7873 23.25C76.4173 23.4 77.1173 23.54 77.8873 23.67C79.2873 23.89 80.5823 24.26 81.7723 24.78C82.9623 25.3 83.9173 25.995 84.6373 26.865C85.3573 27.725 85.7173 28.78 85.7173 30.03C85.7173 31.3 85.3573 32.415 84.6373 33.375C83.9173 34.325 82.9623 35.065 81.7723 35.595C80.5823 36.125 79.2873 36.39 77.8873 36.39ZM92.3565 43.5H88.6965V21H92.3565V22.905C92.8465 22.225 93.4465 21.675 94.1565 21.255C94.8765 20.825 95.7165 20.61 96.6765 20.61C97.7765 20.61 98.8015 20.815 99.7515 21.225C100.701 21.635 101.536 22.205 102.256 22.935C102.986 23.655 103.551 24.49 103.951 25.44C104.361 26.39 104.566 27.41 104.566 28.5C104.566 29.59 104.361 30.615 103.951 31.575C103.551 32.535 102.986 33.38 102.256 34.11C101.536 34.83 100.701 35.395 99.7515 35.805C98.8015 36.215 97.7765 36.42 96.6765 36.42C95.7165 36.42 94.8765 36.21 94.1565 35.79C93.4465 35.36 92.8465 34.805 92.3565 34.125V43.5ZM96.6315 24.135C95.8715 24.135 95.1915 24.335 94.5915 24.735C93.9915 25.125 93.5215 25.65 93.1815 26.31C92.8415 26.97 92.6715 27.7 92.6715 28.5C92.6715 29.3 92.8415 30.035 93.1815 30.705C93.5215 31.365 93.9915 31.895 94.5915 32.295C95.1915 32.685 95.8715 32.88 96.6315 32.88C97.4015 32.88 98.1065 32.685 98.7465 32.295C99.3865 31.905 99.8965 31.38 100.276 30.72C100.656 30.05 100.846 29.31 100.846 28.5C100.846 27.7 100.656 26.97 100.276 26.31C99.8965 25.65 99.3865 25.125 98.7465 24.735C98.1165 24.335 97.4115 24.135 96.6315 24.135ZM113.578 36.39C112.198 36.39 110.938 36.035 109.798 35.325C108.668 34.615 107.763 33.665 107.083 32.475C106.413 31.275 106.078 29.95 106.078 28.5C106.078 27.4 106.273 26.375 106.663 25.425C107.053 24.465 107.588 23.625 108.268 22.905C108.958 22.175 109.758 21.605 110.668 21.195C111.578 20.785 112.548 20.58 113.578 20.58C114.958 20.58 116.213 20.935 117.343 21.645C118.483 22.355 119.388 23.31 120.058 24.51C120.738 25.71 121.078 27.04 121.078 28.5C121.078 29.59 120.883 30.61 120.493 31.56C120.103 32.51 119.563 33.35 118.873 34.08C118.193 34.8 117.398 35.365 116.488 35.775C115.588 36.185 114.618 36.39 113.578 36.39ZM113.578 32.73C114.308 32.73 114.963 32.535 115.543 32.145C116.123 31.755 116.578 31.24 116.908 30.6C117.248 29.96 117.418 29.26 117.418 28.5C117.418 27.72 117.243 27.01 116.893 26.37C116.553 25.72 116.088 25.205 115.498 24.825C114.918 24.435 114.278 24.24 113.578 24.24C112.858 24.24 112.208 24.435 111.628 24.825C111.048 25.215 110.588 25.735 110.248 26.385C109.908 27.035 109.738 27.74 109.738 28.5C109.738 29.29 109.913 30.005 110.263 30.645C110.613 31.285 111.078 31.795 111.658 32.175C112.248 32.545 112.888 32.73 113.578 32.73ZM131.453 24.66H128.543V36H124.883V24.66H122.663V21H124.883V16.29H128.543V21H131.453V24.66ZM133.931 21H137.591V36H133.931V21ZM135.791 19.065C135.251 19.065 134.796 18.89 134.426 18.54C134.056 18.18 133.871 17.73 133.871 17.19C133.871 16.66 134.056 16.215 134.426 15.855C134.796 15.495 135.246 15.315 135.776 15.315C136.306 15.315 136.751 15.495 137.111 15.855C137.481 16.215 137.666 16.66 137.666 17.19C137.666 17.73 137.486 18.18 137.126 18.54C136.766 18.89 136.321 19.065 135.791 19.065ZM145.441 17.85V21H149.536V24.66H145.441V36H141.781V24.66H140.146V21H141.781V17.85C141.781 16.99 141.991 16.205 142.411 15.495C142.841 14.775 143.416 14.205 144.136 13.785C144.856 13.355 145.651 13.14 146.521 13.14C147.151 13.14 147.776 13.27 148.396 13.53C149.016 13.79 149.566 14.19 150.046 14.73L147.406 17.31C147.316 17.14 147.186 17.015 147.016 16.935C146.856 16.845 146.691 16.8 146.521 16.8C146.231 16.8 145.976 16.905 145.756 17.115C145.546 17.315 145.441 17.56 145.441 17.85ZM162.033 21H165.918L157.713 43.5H153.828L156.543 36L151.143 21H155.148L158.373 30.99L162.033 21Z" fill="white" fill-opacity="0.8"/>
</svg>
