<svg width="30" height="30" viewBox="0 0 30 30" fill="none" xmlns="http://www.w3.org/2000/svg">
<rect width="30" height="30" rx="15" fill="white" fill-opacity="0.12"/>
<path d="M17.4922 11.6525C17.122 11.2298 16.9179 10.6869 16.9181 10.125H15.2443V16.8417C15.2314 17.2051 15.078 17.5494 14.8163 17.802C14.5546 18.0546 14.2051 18.1958 13.8414 18.1958C13.0722 18.1958 12.4331 17.5675 12.4331 16.7875C12.4331 15.8558 13.3322 15.1571 14.2585 15.4442V13.7325C12.3897 13.4833 10.7539 14.935 10.7539 16.7875C10.7539 18.5913 12.2489 19.875 13.836 19.875C15.5368 19.875 16.9181 18.4938 16.9181 16.7875V13.3804C17.5968 13.8678 18.4116 14.1294 19.2472 14.1279V12.4542C19.2472 12.4542 18.2289 12.5029 17.4922 11.6525Z" fill="white"/>
</svg>
