<svg width="30" height="30" viewBox="0 0 30 30" fill="none" xmlns="http://www.w3.org/2000/svg">
<rect width="30" height="30" rx="15" fill="white" fill-opacity="0.12"/>
<g clip-path="url(#clip0_61_46)">
<path fill-rule="evenodd" clip-rule="evenodd" d="M14.9997 10.668C15.4628 10.668 15.9378 10.6799 16.3983 10.6994L16.9421 10.7254L17.4626 10.7563L17.9501 10.7893L18.3954 10.824C18.8786 10.861 19.3332 11.0671 19.6794 11.4063C20.0256 11.7454 20.2411 12.1958 20.288 12.6781L20.3096 12.9083L20.3503 13.4012C20.3882 13.912 20.4163 14.4688 20.4163 15.0013C20.4163 15.5338 20.3882 16.0906 20.3503 16.6014L20.3096 17.0943C20.3026 17.1734 20.2955 17.2498 20.288 17.3245C20.2411 17.8069 20.0255 18.2573 19.6792 18.5965C19.3329 18.9356 18.8781 19.1418 18.3948 19.1786L17.9507 19.2128L17.4632 19.2463L16.9421 19.2772L16.3983 19.3032C15.9323 19.3235 15.466 19.3339 14.9997 19.3346C14.5333 19.3339 14.067 19.3235 13.6011 19.3032L13.0573 19.2772L12.5367 19.2463L12.0492 19.2128L11.604 19.1786C11.1208 19.1417 10.6661 18.9355 10.3199 18.5963C9.97376 18.2572 9.75828 17.8068 9.71138 17.3245L9.68972 17.0943L9.64909 16.6014C9.60767 16.069 9.58563 15.5353 9.58301 15.0013C9.58301 14.4688 9.61117 13.912 9.64909 13.4012L9.68972 12.9083C9.69676 12.8292 9.7038 12.7528 9.71138 12.6781C9.75826 12.1958 9.97367 11.7456 10.3197 11.4064C10.6658 11.0673 11.1203 10.8611 11.6034 10.824L12.0481 10.7893L12.5356 10.7563L13.0567 10.7254L13.6005 10.6994C14.0667 10.6791 14.5331 10.6687 14.9997 10.668ZM13.9163 13.6878V16.3148C13.9163 16.5651 14.1872 16.7211 14.4038 16.5965L16.6788 15.283C16.7283 15.2545 16.7695 15.2134 16.7981 15.164C16.8266 15.1145 16.8417 15.0584 16.8417 15.0013C16.8417 14.9442 16.8266 14.8881 16.7981 14.8386C16.7695 14.7892 16.7283 14.7481 16.6788 14.7196L14.4038 13.4066C14.3544 13.3781 14.2984 13.3631 14.2413 13.3631C14.1842 13.3631 14.1282 13.3781 14.0788 13.4067C14.0293 13.4352 13.9883 13.4763 13.9598 13.5257C13.9313 13.5752 13.9163 13.6312 13.9163 13.6883V13.6878Z" fill="white"/>
</g>
<defs>
<clipPath id="clip0_61_46">
<rect width="13" height="13" fill="white" transform="translate(8.5 8.5)"/>
</clipPath>
</defs>
</svg>
